<svg fill="none" xmlns="http://www.w3.org/2000/svg" width="44" height="40"><path d="M43.5884 18.761 39.11 14.6834V4.5081c0-.49306-.1932-.96592-.537-1.31457-.3438-.34864-.81-.54451-1.2962-.54451h-7.3329c-.4862 0-.9525.19587-1.2963.54451-.3438.34865-.5369.82151-.5369 1.31457v.16112L24.0288.95107C23.4696.44754 22.7478.16943 22 .16943s-1.4696.2781-2.0288.78164L.41164 18.761c-.24251.2179-.38977.5246-.4094.8525-.01962.328.09.6505.30476.8966l.81119.9256c.10657.1217.23574.221.38014.2921a1.2097 1.2097 0 0 0 .46142.1223 1.20873 1.20873 0 0 0 .47244-.0661 1.21871 1.21871 0 0 0 .41151-.2445l2.04327-1.8591V36.732c0 .8218.3219 1.6099.89489 2.1909.57299.5811 1.35013.9076 2.16046.9076H36.0546c.8104 0 1.5875-.3265 2.1605-.9076.573-.581.8949-1.3691.8949-2.1909V19.6789l2.0432 1.8591c.1201.1081.2599.1911.4116.2444.1516.0533.3122.0758.4724.0661.1602-.0096.317-.0512.4614-.1223.1444-.0711.2736-.1703.3802-.292l.8142-.9241c.2148-.2461.3244-.5686.3048-.8966-.0197-.3279-.1669-.6346-.4094-.8525Zm-8.1448 17.3513H8.55645v-19.772L22 4.10142 35.4436 16.3403v19.772Zm0-24.7675-3.6665-3.33778V6.36717h3.6665v4.97763Zm-18.3322 4.9374v7.4363c0 .3287.1288.6439.358.8764.2292.2324.54.363.8642.363h7.3328c.3242 0 .635-.1306.8642-.363.2292-.2325.358-.5477.358-.8764v-7.4363c0-.3287-.1288-.6439-.358-.8764-.2292-.2324-.54-.363-.8642-.363h-7.3328c-.3242 0-.635.1306-.8642.363-.2292.2325-.358.5477-.358.8764Z" fill="#775AA0"/></svg>
