<svg width="255" height="101" viewBox="0 0 255 101" fill="none" xmlns="http://www.w3.org/2000/svg">
<path d="M59.4922 80.0702L54.1227 66.1034L54.0821 76.343V77.0802C54.0821 77.7765 54.1227 78.3499 54.2041 78.7186C54.2855 79.0872 54.4075 79.4558 54.6109 79.7425H51.9668C52.4143 79.3329 52.7397 78.1042 52.9431 76.0153C53.1465 73.9264 53.2278 70.6907 53.2278 66.3492C53.2278 65.9396 53.1872 65.6119 53.1058 65.3662C53.0244 65.1204 52.8617 64.8747 52.6583 64.6699H55.2617C55.4651 64.6699 55.6278 64.7108 55.6685 64.7518C55.7092 64.7927 55.7905 64.9156 55.8719 65.0794L60.1024 76.4249L64.7803 65.2023C64.8617 64.9975 64.943 64.8337 65.065 64.7518C65.1871 64.6699 65.3498 64.6289 65.5532 64.6289H67.8311C67.6277 64.8747 67.5057 65.2842 67.3837 65.8577C67.3023 66.4311 67.2616 67.2502 67.2616 68.2742C67.2616 72.2062 67.343 74.9504 67.5057 76.5068C67.6684 78.0632 67.9532 79.1281 68.3599 79.6606H64.943C65.1464 79.3329 65.3091 78.9234 65.4311 78.3909C65.5125 77.8994 65.5939 77.1621 65.5939 76.2611C65.5939 76.2611 65.5939 76.2201 65.5939 76.0972C65.5939 75.4829 65.5532 74.8685 65.5532 74.2131L65.4311 66.0215L59.4922 80.0702Z" fill="#19191A"/>
<path d="M77.2277 79.8666H77.1056C77.065 79.8666 77.0243 79.8666 77.0243 79.8666C77.0243 79.8666 77.0243 79.8256 77.0243 79.7847V79.7028L76.9429 77.9825C76.5768 78.6378 76.1294 79.1293 75.5599 79.498C74.9904 79.8666 74.4209 80.0304 73.7701 80.0304C73.1599 80.0304 72.6311 79.9076 72.143 79.6208C71.6955 79.3751 71.3294 79.0065 71.0853 78.515C70.9226 78.1873 70.8006 77.7777 70.7192 77.2862C70.6379 76.7947 70.5972 75.9756 70.5972 74.8697V74.4191C70.5972 73.1085 70.5972 71.7978 70.6379 70.5281C70.6379 70.3233 70.6379 70.1595 70.6379 70.1185C70.6379 69.8728 70.5972 69.668 70.5159 69.5451C70.4345 69.4222 70.3125 69.2993 70.1497 69.2174L71.6955 68.9717C71.7362 68.9717 71.7362 68.9717 71.7769 68.9717C71.8175 68.9717 71.8175 68.9717 71.8175 68.9717C72.0209 68.9717 72.1836 69.0126 72.2243 69.1355C72.265 69.2174 72.3057 69.4632 72.3057 69.8318L72.265 75.2793V75.4021C72.265 76.549 72.4277 77.3681 72.7938 77.8596C73.1192 78.3511 73.6887 78.5969 74.4616 78.5969C75.3158 78.5969 75.926 78.3102 76.2921 77.6958C76.6582 77.0814 76.8209 75.9756 76.8209 74.3782V71.634C76.8209 70.8558 76.7802 70.2823 76.6989 69.9137C76.6175 69.5451 76.4955 69.3403 76.3328 69.2174L78.6107 68.9717C78.57 69.5861 78.5293 70.4462 78.5293 71.593C78.4887 72.7398 78.4887 74.0096 78.4887 75.3612V76.6718C78.4887 77.7368 78.5293 78.474 78.6107 78.8836C78.6921 79.2932 78.8141 79.5799 79.0175 79.7437L77.2277 79.8666Z" fill="#19191A"/>
<path d="M81.2547 79.7418C81.4174 79.6189 81.5801 79.3322 81.6208 78.9636C81.7022 78.554 81.7428 77.8577 81.7428 76.7928V74.5401V73.8029C81.7428 72.1236 81.7022 71.0177 81.6208 70.4852C81.5395 69.9528 81.4174 69.6251 81.2547 69.5022C81.5395 69.4613 81.9056 69.3794 82.3123 69.3384C82.7191 69.2565 82.9632 69.2155 83.0039 69.2155C83.2479 69.2155 83.3699 69.5432 83.3699 70.1985C83.3699 70.4033 83.37 70.5672 83.4106 70.6491C83.7767 70.0757 84.1428 69.6661 84.5496 69.4203C84.9564 69.1746 85.4038 69.0107 85.892 69.0107C86.2581 69.0107 86.5835 69.0927 86.7869 69.2565C87.0309 69.4203 87.1123 69.6251 87.1123 69.9118C87.1123 70.1166 87.0309 70.3214 86.8682 70.4443C86.7055 70.5672 86.5021 70.6081 86.1767 70.6081C86.0547 70.6081 85.8513 70.6081 85.5665 70.5672C85.2818 70.5262 85.0784 70.5262 84.9157 70.5262C84.2649 70.5262 83.8581 70.731 83.6547 71.1815C83.4513 71.5911 83.3699 72.6151 83.3699 74.2124C83.3699 74.4582 83.3699 74.8678 83.3699 75.5231C83.3699 76.1784 83.3699 76.7109 83.3699 77.1614C83.3699 77.9806 83.4106 78.595 83.492 78.9636C83.5733 79.3322 83.6954 79.6189 83.8581 79.7418H81.2547Z" fill="#19191A"/>
<path d="M88.9022 79.7418C89.0649 79.6189 89.2276 79.3322 89.2683 78.9636C89.3496 78.554 89.3903 77.8577 89.3903 76.7928V74.5401V73.8029C89.3903 72.1236 89.3496 71.0177 89.2683 70.4852C89.1869 69.9528 89.0649 69.6251 88.9022 69.5022C89.1869 69.4613 89.553 69.3794 89.9598 69.3384C90.3666 69.2565 90.6107 69.2155 90.6513 69.2155C90.8954 69.2155 91.0174 69.5432 91.0174 70.1985C91.0174 70.4033 91.0174 70.5672 91.0581 70.6491C91.4242 70.0757 91.7903 69.6661 92.1971 69.4203C92.6039 69.1746 93.0513 69.0107 93.5395 69.0107C93.9056 69.0107 94.231 69.0927 94.4344 69.2565C94.6784 69.4203 94.7598 69.6251 94.7598 69.9118C94.7598 70.1166 94.6784 70.3214 94.5157 70.4443C94.353 70.5672 94.1496 70.6081 93.8242 70.6081C93.7022 70.6081 93.4988 70.6081 93.214 70.5672C92.9293 70.5262 92.7259 70.5262 92.5632 70.5262C91.9123 70.5262 91.5056 70.731 91.3022 71.1815C91.0988 71.5911 91.0174 72.6151 91.0174 74.2124C91.0174 74.4582 91.0174 74.8678 91.0174 75.5231C91.0174 76.1784 91.0174 76.7109 91.0174 77.1614C91.0174 77.9806 91.0581 78.595 91.1395 78.9636C91.2208 79.3322 91.3429 79.6189 91.5056 79.7418H88.9022Z" fill="#19191A"/>
<path d="M101.756 79.8666C101.675 79.6208 101.594 79.3341 101.553 79.0474C101.512 78.7607 101.472 78.3921 101.472 78.0644C101.187 78.6788 100.78 79.1703 100.251 79.5389C99.7225 79.8666 99.153 80.0304 98.5022 80.0304C97.6886 80.0304 96.9971 79.7847 96.4276 79.2932C95.8581 78.8017 95.5734 78.2283 95.5734 77.5729C95.5734 76.9586 95.8174 76.4261 96.3056 75.9756C96.7937 75.525 97.8106 74.9516 99.4378 74.2143C100.414 73.8048 100.984 73.4361 101.187 73.1904C101.39 72.9037 101.512 72.4941 101.512 71.8797C101.512 71.1425 101.35 70.61 101.024 70.2414C100.699 69.9137 100.211 69.7499 99.5191 69.7499C99.1937 69.7499 98.9089 69.7908 98.6649 69.9137C98.4208 70.0366 98.2174 70.1595 98.0954 70.3643C98.0547 70.4462 97.9327 70.61 97.8513 70.8558C97.5666 71.5521 97.2005 71.8797 96.7124 71.8797C96.4683 71.8797 96.2649 71.7978 96.1022 71.634C95.9395 71.4701 95.8581 71.2653 95.8581 71.0196C95.8581 70.4052 96.2649 69.9137 97.0785 69.5451C97.892 69.1765 98.9496 68.9717 100.292 68.9717C101.309 68.9717 102.041 69.1355 102.529 69.5041C102.977 69.8318 103.221 70.4462 103.221 71.2244C103.221 71.3473 103.18 71.9207 103.139 72.9446C103.099 73.9686 103.058 74.9106 103.058 75.8117C103.058 76.9586 103.139 77.8596 103.261 78.515C103.383 79.1703 103.587 79.5799 103.872 79.7437L101.756 79.8666ZM101.431 74.0915C99.6818 74.7878 98.5835 75.3202 98.1361 75.7298C97.6886 76.0984 97.4852 76.5899 97.4852 77.1224C97.4852 77.5729 97.6479 77.9416 97.9734 78.2283C98.2988 78.515 98.7462 78.6378 99.3157 78.6378C100.048 78.6378 100.577 78.3921 100.902 77.9415C101.268 77.491 101.431 76.7538 101.431 75.7708V74.0915Z" fill="#19191A"/>
<path d="M109.2 78.1444C109.892 76.2194 110.461 74.5401 110.868 73.0656C111.275 71.5911 111.478 70.6081 111.478 70.1166C111.478 69.9528 111.478 69.7889 111.438 69.6661C111.397 69.5022 111.356 69.3794 111.275 69.2565H113.716C113.227 69.8299 112.455 71.5092 111.397 74.2944C110.909 75.605 110.502 76.629 110.217 77.3662C108.834 80.8887 107.614 83.3052 106.556 84.6159C105.499 85.9265 104.319 86.5819 103.017 86.5819C102.448 86.5819 101.96 86.459 101.594 86.2132C101.187 85.9675 101.024 85.7217 101.024 85.435C101.024 85.2712 101.105 85.1483 101.268 85.1074C101.431 85.0254 101.756 85.0254 102.244 85.0254C102.407 85.0254 102.61 85.0254 102.814 85.0254C103.058 85.0254 103.18 85.0254 103.261 85.0254C104.075 85.0254 104.644 84.9435 105.01 84.7797C105.377 84.6159 105.702 84.3701 106.027 83.9605C106.597 83.2642 107.044 82.527 107.37 81.7488C107.695 80.9706 107.899 80.3152 107.899 79.7828C107.899 79.4551 107.695 78.554 107.329 77.0795C106.963 75.605 106.475 74.0077 105.905 72.2874C105.499 71.0587 105.173 70.2804 105.01 69.8709C104.807 69.5022 104.644 69.2565 104.441 69.2155L106.068 69.0107H106.271C106.597 69.0107 107.166 70.6081 108.021 73.7619C108.468 75.5641 108.875 76.9976 109.2 78.1444Z" fill="#19191A"/>
<path d="M130.068 79.7432L128.766 77.982C128.116 78.6782 127.424 79.1697 126.733 79.4974C126.041 79.8251 125.309 79.9889 124.577 79.9889C123.316 79.9889 122.299 79.6203 121.526 78.924C120.753 78.2277 120.346 77.3266 120.346 76.2207C120.346 75.3197 120.631 74.4186 121.16 73.5994C121.729 72.7802 122.583 71.9201 123.722 71.101C123.153 70.3637 122.706 69.7084 122.421 69.094C122.136 68.4796 121.973 67.9472 121.973 67.4966C121.973 66.6365 122.339 65.8583 123.031 65.2849C123.722 64.6705 124.617 64.3838 125.716 64.3838C126.651 64.3838 127.424 64.6295 127.994 65.0801C128.604 65.5306 128.889 66.145 128.889 66.8822C128.889 67.4557 128.644 68.0291 128.156 68.6435C127.668 69.2169 126.895 69.8722 125.838 70.6095L129.539 75.7702C129.946 75.2787 130.272 74.7872 130.475 74.2957C130.678 73.8042 130.8 73.3537 130.8 72.9441C130.8 72.7802 130.8 72.6164 130.76 72.4935C130.719 72.3707 130.678 72.2478 130.597 72.1659H132.997C132.712 72.4935 132.265 73.1489 131.655 74.1319C131.044 75.0739 130.516 75.8521 130.109 76.3846L131.817 78.4734C131.98 78.6782 132.183 78.883 132.387 79.1288C132.59 79.3745 132.794 79.5384 133.038 79.7432H130.068ZM128.238 77.2447L124.251 71.8382C123.6 72.3297 123.072 72.9031 122.746 73.4765C122.421 74.05 122.258 74.6643 122.258 75.3606C122.258 76.3027 122.543 77.0809 123.112 77.6952C123.682 78.2687 124.414 78.5963 125.35 78.5963C125.838 78.5963 126.326 78.4734 126.773 78.2687C127.302 78.0229 127.79 77.6952 128.238 77.2447ZM125.39 69.9951C125.96 69.5855 126.407 69.135 126.692 68.6844C126.977 68.2339 127.099 67.7424 127.099 67.2509C127.099 66.6775 126.936 66.2269 126.651 65.8583C126.367 65.4897 125.96 65.3258 125.512 65.3258C125.065 65.3258 124.658 65.4897 124.373 65.7764C124.089 66.0631 123.926 66.4727 123.926 66.9232C123.926 67.2918 124.048 67.7014 124.251 68.152C124.414 68.5615 124.821 69.1759 125.39 69.9951Z" fill="#19191A"/>
<path d="M148.21 80.0702L142.8 66.1034L142.76 76.343V77.0802C142.76 77.7765 142.8 78.3499 142.882 78.7186C142.963 79.0872 143.085 79.4558 143.288 79.7425H140.644C141.092 79.3329 141.417 78.1042 141.621 76.0153C141.824 73.9264 141.905 70.6907 141.905 66.3492C141.905 65.9396 141.865 65.6119 141.783 65.3662C141.702 65.1204 141.539 64.8747 141.336 64.6699H143.939C144.143 64.6699 144.305 64.7108 144.346 64.7518C144.427 64.7927 144.468 64.9156 144.549 65.0794L148.78 76.4249L153.458 65.2023C153.539 64.9975 153.621 64.8337 153.743 64.7518C153.865 64.6699 154.027 64.6289 154.231 64.6289H156.509C156.305 64.8747 156.183 65.2842 156.061 65.8577C155.98 66.4311 155.939 67.2502 155.939 68.2742C155.939 72.2062 156.021 74.9504 156.183 76.5068C156.346 78.0632 156.631 79.1281 157.037 79.6606H153.621C153.824 79.3329 153.987 78.9234 154.109 78.3909C154.19 77.8994 154.271 77.1621 154.271 76.2611C154.271 76.2611 154.271 76.2201 154.271 76.0972C154.271 75.4829 154.231 74.8685 154.231 74.2131L154.109 66.0215L148.21 80.0702Z" fill="#19191A"/>
<path d="M164.644 79.8666C164.563 79.6208 164.481 79.3341 164.44 79.0474C164.4 78.7607 164.359 78.3921 164.359 78.0644C164.074 78.6788 163.668 79.1703 163.139 79.5389C162.61 79.8666 162.04 80.0304 161.39 80.0304C160.576 80.0304 159.885 79.7847 159.315 79.2932C158.746 78.8017 158.461 78.2283 158.461 77.5729C158.461 76.9586 158.705 76.4261 159.193 75.9756C159.681 75.525 160.698 74.9516 162.325 74.2143C163.301 73.8048 163.871 73.4361 164.074 73.1904C164.278 72.9037 164.4 72.4941 164.4 71.8797C164.4 71.1425 164.237 70.61 163.912 70.2414C163.586 69.9137 163.098 69.7499 162.407 69.7499C162.081 69.7499 161.796 69.7908 161.552 69.9137C161.308 70.0366 161.105 70.1595 160.983 70.3643C160.902 70.4462 160.82 70.61 160.739 70.8558C160.454 71.5521 160.088 71.8797 159.6 71.8797C159.356 71.8797 159.152 71.7978 158.99 71.634C158.827 71.4701 158.746 71.2653 158.746 71.0196C158.746 70.4052 159.152 69.9137 159.966 69.5451C160.779 69.1765 161.837 68.9717 163.179 68.9717C164.196 68.9717 164.929 69.1355 165.417 69.5041C165.864 69.8318 166.108 70.4462 166.108 71.2244C166.108 71.3473 166.068 71.9207 166.027 72.9446C165.986 73.9686 165.946 74.9106 165.946 75.8117C165.946 76.9586 166.027 77.8596 166.149 78.515C166.271 79.1703 166.474 79.5799 166.759 79.7437L164.644 79.8666ZM164.278 74.0915C162.529 74.7878 161.43 75.3202 160.983 75.7298C160.535 76.0984 160.332 76.5899 160.332 77.1224C160.332 77.5729 160.495 77.9416 160.82 78.2283C161.146 78.515 161.593 78.6378 162.163 78.6378C162.895 78.6378 163.424 78.3921 163.749 77.9415C164.115 77.491 164.278 76.7538 164.278 75.7708V74.0915Z" fill="#19191A"/>
<path d="M176.359 77.4072V77.4482C176.359 78.2264 176.034 78.8407 175.424 79.3322C174.813 79.8237 173.959 80.0285 172.942 80.0285C171.559 80.0285 170.42 79.537 169.485 78.554C168.59 77.571 168.102 76.3013 168.102 74.7449C168.102 73.0656 168.63 71.673 169.647 70.6081C170.705 69.5432 172.007 69.0107 173.674 69.0107C174.122 69.0107 174.529 69.0517 174.895 69.0927C175.261 69.1336 175.627 69.2155 175.952 69.2974L175.871 71.7549C175.668 71.0996 175.383 70.6491 174.976 70.3214C174.569 69.9937 174.122 69.8299 173.552 69.8299C172.495 69.8299 171.641 70.2804 170.99 71.1406C170.339 72.0007 170.013 73.1475 170.013 74.5811C170.013 75.8098 170.339 76.7928 170.99 77.571C171.641 78.3492 172.454 78.7179 173.471 78.7179C174.041 78.7179 174.61 78.595 175.098 78.3902C175.627 78.1445 176.034 77.8168 176.359 77.4072Z" fill="#19191A"/>
<path d="M178.271 79.7422C178.475 79.4965 178.637 79.005 178.719 78.1449C178.8 77.3257 178.841 75.5645 178.841 72.8612V71.8782C178.841 68.9292 178.8 67.0452 178.719 66.226C178.637 65.4068 178.475 64.8744 178.271 64.6696H179.98C180.671 64.6696 181.566 64.6286 182.746 64.5467C183.885 64.4648 184.698 64.4238 185.186 64.4238C187.342 64.4238 189.01 65.0382 190.23 66.3079C191.451 67.5776 192.061 69.2979 192.061 71.5096C192.061 74.09 191.329 76.0969 189.864 77.6124C188.4 79.0869 186.407 79.8651 183.885 79.8651C183.315 79.8651 182.624 79.8651 181.729 79.8242C180.834 79.7832 180.224 79.7832 179.898 79.7832H178.271V79.7422ZM181.037 65.6526C180.997 66.0212 180.915 66.5946 180.915 67.3319C180.875 68.1101 180.875 69.134 180.875 70.4857V73.9262C180.875 74.9501 180.875 75.7693 180.915 76.4656C180.915 77.1619 180.956 77.6124 180.997 77.8991C181.037 78.3087 181.281 78.5544 181.647 78.6773C182.013 78.8002 182.705 78.8821 183.722 78.8821C185.634 78.8821 187.098 78.3087 188.115 77.1619C189.173 76.015 189.661 74.3767 189.661 72.2878C189.661 70.0761 189.132 68.3968 188.034 67.209C186.935 66.0212 185.39 65.4068 183.356 65.4068C182.949 65.4068 182.542 65.4068 182.176 65.4478C181.769 65.4887 181.403 65.5707 181.037 65.6526Z" fill="#19191A"/>
<path d="M198.854 68.9717C200.319 68.9717 201.498 69.4222 202.312 70.2823C203.125 71.1425 203.573 72.3712 203.573 73.8867C203.573 75.7708 203.125 77.2453 202.19 78.3511C201.254 79.457 199.993 79.9895 198.407 79.9895C196.902 79.9895 195.722 79.5389 194.868 78.5969C194.014 77.6548 193.607 76.3442 193.607 74.7058C193.607 72.9856 194.095 71.593 195.071 70.5281C196.047 69.5041 197.308 68.9717 198.854 68.9717ZM198.488 69.8318C197.512 69.8318 196.78 70.2004 196.292 70.9377C195.763 71.6749 195.519 72.7398 195.519 74.1734C195.519 75.6888 195.844 76.8766 196.454 77.7777C197.064 78.6788 197.919 79.0884 198.936 79.0884C199.831 79.0884 200.522 78.7198 201.01 77.9416C201.458 77.1633 201.702 76.0165 201.702 74.5011C201.702 73.1085 201.417 72.0026 200.807 71.1425C200.197 70.2823 199.424 69.8318 198.488 69.8318Z" fill="#19191A"/>
<path d="M205.322 79.7418C205.485 79.6189 205.647 79.3322 205.688 78.9636C205.769 78.554 205.81 77.8577 205.81 76.7928V74.5401V73.8029C205.81 72.1236 205.769 71.0177 205.688 70.4852C205.607 69.9528 205.485 69.6251 205.322 69.5022L207.437 69.2565C207.478 69.4203 207.518 69.6251 207.518 69.789C207.518 69.9528 207.559 70.1985 207.559 70.4033V70.731C208.007 70.1166 208.535 69.6661 209.024 69.4203C209.552 69.1336 210.162 69.0107 210.854 69.0107C211.83 69.0107 212.522 69.3384 212.929 69.9937C213.295 70.6491 213.498 72.0826 213.498 74.3353V76.7109V77.3662C213.498 78.1854 213.539 78.7588 213.62 79.0455C213.701 79.3322 213.823 79.578 213.986 79.7418H211.708C211.749 78.8817 211.79 77.9806 211.79 77.0386C211.79 76.0965 211.83 75.0316 211.83 73.8848V73.3114C211.83 72.0007 211.668 71.1815 211.383 70.8129C211.098 70.4443 210.569 70.2804 209.837 70.2804C208.983 70.2804 208.373 70.5262 208.047 70.9767C207.681 71.4682 207.518 72.6151 207.518 74.4582V76.7109C207.518 77.7758 207.559 78.5131 207.64 78.8817C207.722 79.2913 207.844 79.537 208.007 79.6599H205.322V79.7418Z" fill="#19191A"/>
<path d="M221.633 79.8666C221.552 79.6208 221.471 79.3341 221.43 79.0474C221.389 78.7607 221.349 78.3921 221.349 78.0644C221.064 78.6788 220.657 79.1703 220.128 79.5389C219.6 79.8666 219.03 80.0304 218.379 80.0304C217.566 80.0304 216.874 79.7847 216.305 79.2932C215.735 78.8017 215.45 78.2283 215.45 77.5729C215.45 76.9586 215.694 76.4261 216.183 75.9756C216.671 75.525 217.688 74.9516 219.315 74.2143C220.291 73.8048 220.861 73.4361 221.064 73.1904C221.267 72.9037 221.389 72.4941 221.389 71.8797C221.389 71.1425 221.227 70.61 220.901 70.2414C220.576 69.9137 220.088 69.7499 219.396 69.7499C219.071 69.7499 218.786 69.7908 218.542 69.9137C218.298 70.0366 218.094 70.1595 217.972 70.3643C217.891 70.4462 217.81 70.61 217.728 70.8558C217.444 71.5521 217.078 71.8797 216.589 71.8797C216.345 71.8797 216.142 71.7978 215.979 71.634C215.817 71.4701 215.735 71.2653 215.735 71.0196C215.735 70.4052 216.142 69.9137 216.955 69.5451C217.769 69.1765 218.827 68.9717 220.169 68.9717C221.186 68.9717 221.918 69.1355 222.406 69.5041C222.854 69.8318 223.098 70.4462 223.098 71.2244C223.098 71.3473 223.057 71.9207 223.017 72.9446C222.976 73.9686 222.935 74.9106 222.935 75.8117C222.935 76.9586 223.017 77.8596 223.139 78.515C223.261 79.1703 223.464 79.5799 223.749 79.7437L221.633 79.8666ZM221.308 74.0915C219.559 74.7878 218.461 75.3202 218.013 75.7298C217.566 76.0984 217.362 76.5899 217.362 77.1224C217.362 77.5729 217.525 77.9416 217.85 78.2283C218.176 78.515 218.623 78.6378 219.193 78.6378C219.925 78.6378 220.454 78.3921 220.779 77.9415C221.145 77.491 221.308 76.7538 221.308 75.7708V74.0915Z" fill="#19191A"/>
<path d="M225.498 79.7426C225.701 79.6198 225.823 79.2921 225.905 78.8006C225.986 78.3091 226.027 77.408 226.027 76.0973C226.027 75.7287 226.027 75.0734 226.027 74.0904C226.027 73.1074 226.027 72.2882 226.027 71.6739V68.0695C226.027 66.3902 225.986 65.2844 225.905 64.7109C225.823 64.1375 225.701 63.8099 225.539 63.7279L227.817 63.3184C227.776 63.7689 227.735 64.8338 227.735 66.5541C227.735 68.2743 227.695 71.0595 227.695 74.9096V76.7527C227.695 77.8176 227.735 78.5548 227.817 78.9644C227.898 79.374 228.02 79.6198 228.183 79.7836H225.498V79.7426Z" fill="#19191A"/>
<path d="M239.247 63.2773C239.166 64.0556 239.084 65.4072 239.003 67.4141C238.921 69.3801 238.921 71.6328 238.921 74.0494C238.921 76.384 238.962 77.8585 239.044 78.5138C239.125 79.1692 239.288 79.5788 239.491 79.7426L237.294 79.8655C237.254 79.7016 237.213 79.4968 237.213 79.333C237.213 79.1692 237.172 79.0053 237.172 78.8415V78.5548C236.847 79.0053 236.399 79.374 235.871 79.6197C235.342 79.8655 234.732 79.9883 234.081 79.9883C232.82 79.9883 231.844 79.5378 231.071 78.5958C230.298 77.6537 229.932 76.425 229.932 74.8685C229.932 73.0254 230.501 71.5919 231.6 70.5679C232.698 69.503 234.244 69.0115 236.155 69.0115C236.399 69.0115 236.644 69.0115 236.806 69.0115C236.969 69.0115 237.132 69.0115 237.294 69.0525V66.595C237.294 65.6939 237.254 65.0385 237.213 64.629C237.132 64.2194 237.05 63.8917 236.888 63.646L239.247 63.2773ZM235.098 78.7596C235.871 78.7596 236.44 78.5548 236.766 78.1043C237.091 77.6537 237.254 76.7936 237.254 75.4829C237.254 73.394 237.254 72.0424 237.213 71.469C237.172 70.8956 237.132 70.527 237.091 70.3631C237.01 70.1583 236.847 70.0355 236.644 69.9126C236.399 69.8307 236.115 69.7897 235.749 69.7897C234.528 69.7897 233.552 70.1993 232.861 71.0185C232.169 71.8376 231.803 72.9845 231.803 74.459C231.803 75.7287 232.128 76.7526 232.738 77.5718C233.349 78.35 234.122 78.7596 235.098 78.7596Z" fill="#19191A"/>
<path d="M52.4956 98.3793C52.699 98.1335 52.8617 97.642 52.9431 96.7819C53.0244 95.9627 53.0651 94.2015 53.0651 91.4983V90.5153C53.0651 87.5663 53.0244 85.6822 52.9431 84.8631C52.8617 84.0439 52.699 83.5114 52.4956 83.3066H55.6685C55.4651 83.5114 55.3024 84.0439 55.221 84.8221C55.1397 85.6003 55.099 87.3205 55.099 89.9009V90.802V91.7031C55.099 94.2835 55.1397 96.0037 55.221 96.7819C55.3024 97.5601 55.4651 98.0926 55.6685 98.2974H52.4956V98.3793Z" fill="#19191A"/>
<path d="M58.1092 98.3785C58.2719 98.2557 58.4346 97.9689 58.4753 97.6003C58.5567 97.1907 58.5973 96.4944 58.5973 95.4295V93.1768V92.4396C58.5973 90.7603 58.5567 89.6544 58.4753 89.122C58.394 88.5895 58.2719 88.2618 58.1092 88.139L60.2245 87.8932C60.2651 88.057 60.3058 88.2618 60.3058 88.4257C60.3058 88.6305 60.3465 88.8353 60.3465 89.04V89.3677C60.7939 88.7533 61.3228 88.3028 61.8109 88.057C62.3397 87.7703 62.9499 87.6475 63.6414 87.6475C64.6176 87.6475 65.3092 87.9751 65.7159 88.6305C66.082 89.2858 66.2854 90.7193 66.2854 92.972V95.3476V96.003C66.2854 96.8221 66.3261 97.3955 66.4075 97.6822C66.4888 97.9689 66.6109 98.2147 66.7736 98.3785H64.4956C64.5363 97.5184 64.577 96.6173 64.577 95.6753C64.577 94.7332 64.6176 93.6683 64.6176 92.5215V91.989C64.6176 90.6784 64.4549 89.8592 64.1702 89.4906C63.8854 89.122 63.3566 88.9581 62.6244 88.9581C61.7702 88.9581 61.16 89.2039 60.8346 89.6544C60.4685 90.1459 60.3058 91.2928 60.3058 93.1359V95.3886C60.3058 96.4535 60.3465 97.1907 60.4278 97.5594C60.5092 97.969 60.6312 98.2147 60.7939 98.3376H58.1092V98.3785Z" fill="#19191A"/>
<path d="M68.3196 95.7981C68.5636 96.4943 68.9297 96.9858 69.4179 97.3545C69.906 97.6821 70.4755 97.846 71.2077 97.846C71.8585 97.846 72.428 97.6412 72.8348 97.2726C73.2416 96.9039 73.445 96.4124 73.445 95.839C73.445 95.3885 73.3229 94.9789 73.0382 94.6512C72.7534 94.3236 72.1839 93.914 71.2484 93.3815C70.2721 92.8491 69.5806 92.3576 69.2145 91.8661C68.8484 91.3746 68.645 90.8421 68.645 90.2277C68.645 89.4086 68.9704 88.7532 69.5806 88.2617C70.1907 87.8112 71.0856 87.5654 72.2246 87.5654C72.5907 87.5654 72.9568 87.6064 73.4043 87.6473C73.811 87.6883 74.2585 87.7702 74.7466 87.8931L74.6653 89.9001C74.3805 89.4086 74.0144 88.999 73.6077 88.7532C73.2009 88.5075 72.7534 88.3846 72.1839 88.3846C71.6551 88.3846 71.2077 88.5075 70.8823 88.7942C70.5568 89.0399 70.3941 89.4086 70.3941 89.8591C70.3941 90.6373 71.167 91.4565 72.7534 92.3985L72.9568 92.5214C73.8924 93.0538 74.5432 93.5453 74.828 93.9549C75.1534 94.3645 75.3161 94.856 75.3161 95.3885C75.3161 96.2896 74.9094 97.0268 74.0551 97.6821C73.2416 98.3375 72.2246 98.6651 71.0856 98.6651C70.2314 98.6651 69.5399 98.5832 68.9704 98.3784C68.4009 98.1736 68.1162 97.9279 68.1162 97.6002C68.1162 97.4773 68.1162 97.2726 68.1568 96.9449C68.2382 96.6172 68.2789 96.2486 68.3196 95.7981Z" fill="#19191A"/>
<path d="M84.0209 98.5424H83.8988C83.8581 98.5424 83.8175 98.5424 83.8175 98.5424C83.8175 98.5424 83.8175 98.5014 83.8175 98.4604V98.3785L83.7361 96.6583C83.37 97.3136 82.9226 97.8051 82.3531 98.1737C81.7836 98.5424 81.2141 98.7062 80.5632 98.7062C79.9531 98.7062 79.4243 98.5833 78.9361 98.2966C78.448 98.0099 78.1226 97.6822 77.8785 97.1907C77.7158 96.8631 77.5938 96.4535 77.5124 95.962C77.4311 95.4705 77.3904 94.6513 77.3904 93.5455V93.0949C77.3904 91.7842 77.3904 90.4736 77.4311 89.2039C77.4311 88.9991 77.4311 88.8353 77.4311 88.7943C77.4311 88.5485 77.3904 88.3438 77.309 88.2209C77.2277 88.098 77.1056 87.9751 76.9429 87.8932L78.4887 87.6475C78.5294 87.6475 78.5294 87.6475 78.57 87.6475C78.6107 87.6475 78.6107 87.6475 78.6107 87.6475C78.8141 87.6475 78.9768 87.6884 79.0175 87.8113C79.0582 87.8932 79.0988 88.139 79.0988 88.5076L79.0582 93.955V94.0779C79.0582 95.2247 79.2209 96.0439 79.587 96.5354C79.9124 97.0269 80.4819 97.2727 81.2548 97.2727C82.109 97.2727 82.7192 96.9859 83.0853 96.3716C83.4514 95.7572 83.6141 94.6513 83.6141 93.054V90.3097C83.6141 89.5315 83.5734 88.9581 83.492 88.5895C83.4107 88.2209 83.2887 88.0161 83.1259 87.8932L85.4039 87.6475C85.3632 88.2618 85.3225 89.122 85.3225 90.2688C85.2819 91.4156 85.2819 92.6853 85.2819 94.037V95.3476C85.2819 96.4125 85.3225 97.1498 85.4039 97.5594C85.4853 97.9689 85.6073 98.2557 85.8107 98.4195L84.0209 98.5424Z" fill="#19191A"/>
<path d="M88.0478 98.3785C88.2105 98.2557 88.3733 97.9689 88.4139 97.6003C88.4953 97.1907 88.536 96.4944 88.536 95.4295V93.1768V92.4396C88.536 90.7603 88.4953 89.6544 88.4139 89.122C88.3326 88.5895 88.2105 88.2618 88.0478 88.139C88.3326 88.098 88.6987 88.0161 89.1055 87.9751C89.5122 87.8932 89.7563 87.8523 89.797 87.8523C90.041 87.8523 90.1631 88.1799 90.1631 88.8353C90.1631 89.04 90.1631 89.2039 90.2037 89.2858C90.5698 88.7124 90.936 88.3028 91.3427 88.057C91.7495 87.8113 92.197 87.6475 92.6851 87.6475C93.0512 87.6475 93.3766 87.7294 93.58 87.8932C93.8241 88.057 93.9054 88.2618 93.9054 88.5485C93.9054 88.7533 93.8241 88.9581 93.6614 89.081C93.4986 89.2039 93.2953 89.2448 92.9698 89.2448C92.8478 89.2448 92.6444 89.2448 92.3597 89.2039C92.0749 89.1629 91.8715 89.1629 91.7088 89.1629C91.058 89.1629 90.6512 89.3677 90.4478 89.8183C90.2444 90.2278 90.1631 91.2518 90.1631 92.8492C90.1631 93.0949 90.1631 93.5045 90.1631 94.1598C90.1631 94.8152 90.1631 95.3476 90.1631 95.7982C90.1631 96.6173 90.2037 97.2317 90.2851 97.6003C90.3665 97.9689 90.4885 98.2557 90.6512 98.3785H88.0478Z" fill="#19191A"/>
<path d="M100.902 98.5424C100.821 98.2966 100.739 98.0099 100.699 97.7232C100.658 97.4365 100.617 97.0679 100.617 96.7402C100.333 97.3546 99.9258 97.8461 99.3969 98.2147C98.8681 98.5424 98.2987 98.7062 97.6478 98.7062C96.8343 98.7062 96.1427 98.4604 95.5732 97.9689C95.0038 97.4774 94.719 96.904 94.719 96.2487C94.719 95.6343 94.9631 95.1019 95.4512 94.6513C95.9393 94.2008 96.9563 93.6274 98.5834 92.8901C99.5597 92.4805 100.129 92.1119 100.333 91.8662C100.536 91.5795 100.658 91.1699 100.658 90.5555C100.658 89.8183 100.495 89.2858 100.17 88.9172C99.8444 88.5895 99.3563 88.4257 98.6647 88.4257C98.3393 88.4257 98.0546 88.4666 97.8105 88.5895C97.5664 88.7124 97.3631 88.8353 97.241 89.04C97.2004 89.122 97.0783 89.2858 96.997 89.5315C96.7122 90.2278 96.3461 90.5555 95.858 90.5555C95.6139 90.5555 95.4105 90.4736 95.2478 90.3097C95.0851 90.1459 95.0038 89.9411 95.0038 89.6954C95.0038 89.081 95.4105 88.5895 96.2241 88.2209C97.0376 87.8523 98.0953 87.6475 99.4376 87.6475C100.455 87.6475 101.187 87.8113 101.675 88.1799C102.122 88.5076 102.366 89.122 102.366 89.9002C102.366 90.023 102.326 90.5965 102.285 91.6204C102.244 92.6444 102.204 93.5864 102.204 94.4875C102.204 95.6343 102.285 96.5354 102.407 97.1907C102.529 97.8461 102.733 98.2557 103.017 98.4195L100.902 98.5424ZM100.536 92.7672C98.7868 93.4635 97.6885 93.996 97.241 94.4056C96.7936 94.7742 96.5902 95.2657 96.5902 95.7982C96.5902 96.2487 96.7529 96.6173 97.0783 96.904C97.4037 97.1907 97.8512 97.3136 98.4207 97.3136C99.1529 97.3136 99.6817 97.0679 100.007 96.6173C100.373 96.1668 100.536 95.4295 100.536 94.4465V92.7672Z" fill="#19191A"/>
<path d="M104.726 98.3785C104.889 98.2557 105.051 97.9689 105.092 97.6003C105.173 97.1907 105.214 96.4944 105.214 95.4295V93.1768V92.4396C105.214 90.7603 105.173 89.6544 105.092 89.122C105.011 88.5895 104.889 88.2618 104.726 88.139L106.841 87.8932C106.882 88.057 106.923 88.2618 106.923 88.4257C106.923 88.6305 106.963 88.8353 106.963 89.04V89.3677C107.411 88.7533 107.94 88.3028 108.428 88.057C108.956 87.7703 109.567 87.6475 110.258 87.6475C111.234 87.6475 111.926 87.9751 112.333 88.6305C112.699 89.2858 112.902 90.7193 112.902 92.972V95.3476V96.003C112.902 96.8221 112.943 97.3955 113.024 97.6822C113.106 97.9689 113.228 98.2147 113.39 98.3785H111.112C111.153 97.5184 111.194 96.6173 111.194 95.6753C111.194 94.7332 111.234 93.6683 111.234 92.5215V91.989C111.234 90.6784 111.072 89.8592 110.787 89.4906C110.502 89.122 109.973 88.9581 109.241 88.9581C108.387 88.9581 107.777 89.2039 107.451 89.6544C107.085 90.1459 106.923 91.2928 106.923 93.1359V95.3886C106.923 96.4535 106.963 97.1907 107.045 97.5594C107.126 97.969 107.248 98.2147 107.411 98.3376H104.726V98.3785Z" fill="#19191A"/>
<path d="M123.316 96.0849V96.1259C123.316 96.9041 122.99 97.5185 122.38 98.01C121.77 98.4605 120.916 98.7063 119.899 98.7063C118.516 98.7063 117.377 98.2148 116.441 97.2318C115.546 96.2488 115.058 94.9791 115.058 93.4226C115.058 91.7434 115.587 90.3508 116.604 89.2858C117.662 88.2209 118.963 87.6885 120.631 87.6885C121.078 87.6885 121.485 87.7294 121.851 87.7704C122.217 87.8114 122.584 87.8933 122.909 87.9752L122.828 90.4327C122.624 89.7773 122.339 89.3268 121.933 88.9991C121.526 88.6715 121.078 88.5076 120.509 88.5076C119.451 88.5076 118.597 88.9582 117.946 89.8183C117.295 90.6784 116.97 91.8253 116.97 93.2588C116.97 94.4876 117.295 95.4706 117.946 96.2488C118.597 97.027 119.411 97.3956 120.428 97.3956C120.997 97.3956 121.567 97.2727 122.055 97.0679C122.584 96.8222 122.99 96.4945 123.316 96.0849Z" fill="#19191A"/>
<path d="M132.916 95.8391V96.1258C132.916 96.7402 132.549 97.3546 131.777 97.887C131.004 98.4195 130.149 98.7062 129.173 98.7062C127.79 98.7062 126.651 98.2147 125.838 97.2317C124.983 96.2487 124.577 94.8971 124.577 93.2178C124.577 91.4975 125.024 90.1459 125.919 89.1629C126.814 88.1799 127.994 87.6475 129.458 87.6475C130.556 87.6475 131.411 87.9342 132.102 88.5076C132.794 89.081 133.119 89.8182 133.119 90.7193C133.119 91.088 132.916 91.3337 132.509 91.4566C132.102 91.5795 130.922 91.6204 128.97 91.6204C128.4 91.6204 127.953 91.6204 127.627 91.6204C127.302 91.6204 127.017 91.6204 126.733 91.5795C126.692 91.7842 126.611 91.989 126.611 92.2348C126.57 92.4396 126.57 92.6853 126.57 92.9311C126.57 94.2417 126.895 95.2657 127.505 96.0439C128.116 96.8221 128.97 97.1907 130.027 97.1907C130.597 97.1907 131.126 97.0679 131.614 96.8631C131.98 96.6583 132.468 96.2897 132.916 95.8391ZM126.773 90.9241H126.977C127.017 90.9241 127.18 90.9241 127.546 90.9651C127.912 90.9651 128.238 91.006 128.563 91.006H128.848C129.865 91.006 130.516 90.9651 130.76 90.8422C131.004 90.7193 131.126 90.5145 131.126 90.1869C131.126 89.6954 130.922 89.2858 130.556 88.9581C130.19 88.6305 129.743 88.4666 129.214 88.4666C128.563 88.4666 128.034 88.7124 127.587 89.1629C127.139 89.6135 126.855 90.1869 126.773 90.9241Z" fill="#19191A"/>
<path d="M140.603 97.8056V95.2662C141.051 96.0444 141.661 96.6178 142.393 97.0274C143.125 97.437 143.939 97.6418 144.834 97.6418C145.729 97.6418 146.461 97.3551 147.03 96.8226C147.6 96.2901 147.885 95.5938 147.885 94.7747C147.885 94.1193 147.681 93.5459 147.315 93.0544C146.949 92.5629 146.298 92.0714 145.403 91.5799L145.078 91.4161C142.434 89.9826 141.132 88.5081 141.132 87.0336C141.132 85.8867 141.58 84.9447 142.475 84.2074C143.37 83.4702 144.549 83.1016 145.973 83.1016C146.42 83.1016 146.949 83.1016 147.478 83.1425C148.047 83.1835 148.332 83.1835 148.454 83.1835C148.495 83.1835 148.536 83.1835 148.658 83.1835C148.739 83.1835 148.82 83.1835 148.902 83.1835H149.512V85.641C149.227 85.1495 148.82 84.7809 148.292 84.4941C147.763 84.2484 147.153 84.0846 146.42 84.0846C145.444 84.0846 144.671 84.2894 144.102 84.7399C143.532 85.1495 143.247 85.7639 143.247 86.4601C143.247 87.5251 144.264 88.6309 146.339 89.6958L146.502 89.7778C147.803 90.4741 148.698 91.1294 149.268 91.8257C149.837 92.481 150.081 93.2592 150.081 94.1193C150.081 95.3891 149.553 96.454 148.536 97.3551C147.519 98.2561 146.258 98.7067 144.753 98.7067C144.142 98.7067 143.532 98.6248 142.841 98.5019C142.149 98.338 141.417 98.0923 140.603 97.8056Z" fill="#19191A"/>
<path d="M160.21 95.8391V96.1258C160.21 96.7402 159.844 97.3546 159.071 97.887C158.298 98.4195 157.444 98.7062 156.468 98.7062C155.085 98.7062 153.946 98.2147 153.132 97.2317C152.278 96.2487 151.871 94.8971 151.871 93.2178C151.871 91.4975 152.319 90.1459 153.214 89.1629C154.109 88.1799 155.288 87.6475 156.753 87.6475C157.851 87.6475 158.705 87.9342 159.397 88.5076C160.088 89.081 160.414 89.8182 160.414 90.7193C160.414 91.088 160.21 91.3337 159.803 91.4566C159.397 91.5795 158.217 91.6204 156.264 91.6204C155.695 91.6204 155.247 91.6204 154.922 91.6204C154.597 91.6204 154.312 91.6204 154.027 91.5795C153.946 91.7842 153.905 91.989 153.905 92.2348C153.864 92.4396 153.864 92.6853 153.864 92.9311C153.864 94.2417 154.19 95.2657 154.8 96.0439C155.41 96.8221 156.264 97.1907 157.322 97.1907C157.892 97.1907 158.42 97.0679 158.908 96.8631C159.275 96.6583 159.763 96.2897 160.21 95.8391ZM154.109 90.9241H154.312C154.353 90.9241 154.515 90.9241 154.881 90.9651C155.248 90.9651 155.573 91.006 155.898 91.006H156.183C157.2 91.006 157.851 90.9651 158.095 90.8422C158.339 90.7193 158.461 90.5145 158.461 90.1869C158.461 89.6954 158.258 89.2858 157.892 88.9581C157.525 88.6305 157.078 88.4666 156.549 88.4666C155.898 88.4666 155.37 88.7124 154.922 89.1629C154.434 89.6135 154.19 90.1869 154.109 90.9241Z" fill="#19191A"/>
<path d="M162.203 98.3785C162.366 98.2557 162.529 97.9689 162.57 97.6003C162.651 97.1907 162.692 96.4944 162.692 95.4295V93.1768V92.4396C162.692 90.7603 162.651 89.6544 162.57 89.122C162.488 88.5895 162.366 88.2618 162.203 88.139C162.488 88.098 162.854 88.0161 163.261 87.9751C163.668 87.8932 163.912 87.8523 163.953 87.8523C164.197 87.8523 164.319 88.1799 164.319 88.8353C164.319 89.04 164.319 89.2039 164.359 89.2858C164.725 88.7124 165.092 88.3028 165.498 88.057C165.905 87.8113 166.353 87.6475 166.841 87.6475C167.207 87.6475 167.532 87.7294 167.736 87.8932C167.98 88.057 168.061 88.2618 168.061 88.5485C168.061 88.7533 167.98 88.9581 167.817 89.081C167.654 89.2039 167.451 89.2448 167.125 89.2448C167.003 89.2448 166.8 89.2448 166.515 89.2039C166.231 89.1629 166.027 89.1629 165.864 89.1629C165.214 89.1629 164.807 89.3677 164.603 89.8183C164.4 90.2278 164.319 91.2518 164.319 92.8492C164.319 93.0949 164.319 93.5045 164.319 94.1598C164.319 94.8152 164.319 95.3476 164.319 95.7982C164.319 96.6173 164.359 97.2317 164.441 97.6003C164.522 97.9689 164.644 98.2557 164.807 98.3785H162.203Z" fill="#19191A"/>
<path d="M173.43 98.5015C172.454 95.2249 171.641 92.6445 170.949 90.8014C170.258 88.9582 169.77 88.0162 169.485 87.9343L171.193 87.7295H171.397C171.722 87.7295 172.332 89.204 173.186 92.112C173.715 93.9961 174.203 95.5525 174.569 96.7813C175.302 94.8153 175.871 93.136 176.278 91.6615C176.685 90.2279 176.888 89.2449 176.888 88.7125C176.888 88.5487 176.888 88.4258 176.847 88.2619C176.807 88.0981 176.766 87.9752 176.685 87.8524H179.085C178.719 88.18 178.149 89.3269 177.376 91.2519C176.603 93.1769 175.708 95.5935 174.814 98.4196H173.43V98.5015Z" fill="#19191A"/>
<path d="M180.63 86.296L179.613 84.6986L181.362 83.5928L182.339 85.1901L180.63 86.296ZM179.817 98.3787C179.979 98.2559 180.142 97.9691 180.183 97.6005C180.264 97.1909 180.305 96.4946 180.305 95.4297V93.177V91.8664C180.305 90.3099 180.264 89.286 180.183 88.7945C180.101 88.303 179.979 88.0163 179.817 87.8934C180.264 87.8934 180.671 87.8524 181.037 87.8115C181.403 87.7705 181.769 87.7296 182.095 87.6476C182.054 88.0163 182.013 88.6716 182.013 89.6546C182.013 90.6376 181.973 92.1121 181.973 94.1191V95.4707C181.973 96.4946 182.013 97.1909 182.095 97.6005C182.176 98.0101 182.298 98.2559 182.461 98.4197H179.817V98.3787Z" fill="#19191A"/>
<path d="M192.509 96.0849V96.1259C192.509 96.9041 192.183 97.5185 191.573 98.01C190.963 98.4605 190.109 98.7063 189.092 98.7063C187.709 98.7063 186.57 98.2148 185.634 97.2318C184.739 96.2488 184.251 94.9791 184.251 93.4226C184.251 91.7434 184.78 90.3508 185.797 89.2858C186.854 88.2209 188.156 87.6885 189.824 87.6885C190.271 87.6885 190.678 87.7294 191.044 87.7704C191.41 87.8114 191.776 87.8933 192.102 87.9752L192.02 90.4327C191.817 89.7773 191.532 89.3268 191.125 88.9991C190.719 88.6715 190.271 88.5076 189.702 88.5076C188.644 88.5076 187.79 88.9582 187.139 89.8183C186.488 90.6784 186.163 91.8253 186.163 93.2588C186.163 94.4876 186.488 95.4706 187.139 96.2488C187.79 97.027 188.603 97.3956 189.62 97.3956C190.19 97.3956 190.759 97.2727 191.248 97.0679C191.776 96.8222 192.183 96.4945 192.509 96.0849Z" fill="#19191A"/>
<path d="M202.108 95.8391V96.1258C202.108 96.7402 201.742 97.3546 200.969 97.887C200.197 98.4195 199.342 98.7062 198.366 98.7062C196.983 98.7062 195.844 98.2147 195.03 97.2317C194.176 96.2487 193.769 94.8971 193.769 93.2178C193.769 91.4975 194.217 90.1459 195.112 89.1629C196.007 88.1799 197.186 87.6475 198.651 87.6475C199.749 87.6475 200.603 87.9342 201.295 88.5076C201.986 89.081 202.312 89.8182 202.312 90.7193C202.312 91.088 202.108 91.3337 201.702 91.4566C201.295 91.5795 200.115 91.6204 198.163 91.6204C197.593 91.6204 197.146 91.6204 196.82 91.6204C196.495 91.6204 196.21 91.6204 195.925 91.5795C195.844 91.7842 195.803 91.989 195.803 92.2348C195.763 92.4396 195.763 92.6853 195.763 92.9311C195.763 94.2417 196.088 95.2657 196.698 96.0439C197.308 96.8221 198.163 97.1907 199.22 97.1907C199.79 97.1907 200.319 97.0679 200.807 96.8631C201.173 96.6583 201.661 96.2897 202.108 95.8391ZM195.966 90.9241H196.169C196.21 90.9241 196.373 90.9241 196.739 90.9651C197.105 90.9651 197.43 91.006 197.756 91.006H198.041C199.058 91.006 199.708 90.9651 199.952 90.8422C200.197 90.7193 200.319 90.5145 200.319 90.1869C200.319 89.6954 200.115 89.2858 199.749 88.9581C199.383 88.6305 198.935 88.4666 198.407 88.4666C197.756 88.4666 197.227 88.7124 196.78 89.1629C196.332 89.6135 196.088 90.1869 195.966 90.9241Z" fill="#19191A"/>
<path d="M203.573 95.7981C203.817 96.4943 204.183 96.9858 204.671 97.3545C205.159 97.6821 205.729 97.846 206.461 97.846C207.112 97.846 207.681 97.6412 208.088 97.2726C208.495 96.9039 208.698 96.4124 208.698 95.839C208.698 95.3885 208.576 94.9789 208.291 94.6512C208.007 94.3236 207.437 93.914 206.501 93.3815C205.525 92.8491 204.834 92.3576 204.468 91.8661C204.101 91.3746 203.898 90.8421 203.898 90.2277C203.898 89.4086 204.223 88.7532 204.834 88.2617C205.444 87.8112 206.339 87.5654 207.478 87.5654C207.844 87.5654 208.21 87.6064 208.657 87.6473C209.064 87.6883 209.512 87.7702 210 87.8931L209.918 89.9001C209.634 89.4086 209.268 88.999 208.861 88.7532C208.454 88.5075 208.006 88.3846 207.437 88.3846C206.908 88.3846 206.461 88.5075 206.135 88.7942C205.81 89.0399 205.647 89.4086 205.647 89.8591C205.647 90.6373 206.42 91.4565 208.006 92.3985L208.21 92.5214C209.145 93.0538 209.796 93.5453 210.081 93.9549C210.406 94.3645 210.569 94.856 210.569 95.3885C210.569 96.2896 210.162 97.0268 209.308 97.6821C208.454 98.3375 207.478 98.6651 206.339 98.6651C205.484 98.6651 204.793 98.5832 204.223 98.3784C203.654 98.1736 203.369 97.9279 203.369 97.6002C203.369 97.4773 203.369 97.2726 203.41 96.9449C203.491 96.6172 203.532 96.2486 203.573 95.7981Z" fill="#19191A"/>
<path d="M214.962 96.2891C215.125 96.6986 215.288 97.0263 215.369 97.354C215.451 97.6816 215.491 97.9274 215.491 98.1732C215.491 98.6237 215.329 99.0742 214.962 99.4838C214.596 99.8934 213.946 100.385 213.01 100.999C213.213 100.672 213.335 100.344 213.457 100.057C213.539 99.7296 213.62 99.4429 213.62 99.1152C213.62 98.8285 213.579 98.5008 213.498 98.2141C213.417 97.8864 213.254 97.5588 213.091 97.2311L214.962 96.2891Z" fill="#19191A"/>
<path d="M224.929 98.3793C225.132 98.1335 225.295 97.642 225.376 96.7819C225.457 95.9627 225.498 94.2015 225.498 91.4983V90.5153C225.498 87.5663 225.457 85.6822 225.376 84.8631C225.295 84.0439 225.132 83.5114 224.929 83.3066H228.102C227.898 83.5114 227.735 84.0439 227.654 84.8221C227.573 85.6003 227.532 87.3205 227.532 89.9009V90.802V91.7031C227.532 94.2835 227.573 96.0037 227.654 96.7819C227.735 97.5601 227.898 98.0926 228.102 98.2974H224.929V98.3793Z" fill="#19191A"/>
<path d="M230.542 98.3785C230.705 98.2557 230.867 97.9689 230.908 97.6003C230.989 97.1907 231.03 96.4944 231.03 95.4295V93.1768V92.4396C231.03 90.7603 230.989 89.6544 230.908 89.122C230.827 88.5895 230.705 88.2618 230.542 88.139L232.657 87.8932C232.698 88.057 232.738 88.2618 232.738 88.4257C232.738 88.6305 232.779 88.8353 232.779 89.04V89.3677C233.227 88.7533 233.755 88.3028 234.244 88.057C234.772 87.7703 235.382 87.6475 236.074 87.6475C237.05 87.6475 237.742 87.9751 238.149 88.6305C238.515 89.2858 238.718 90.7193 238.718 92.972V95.3476V96.003C238.718 96.8221 238.759 97.3955 238.84 97.6822C238.921 97.9689 239.043 98.2147 239.206 98.3785H236.928C236.969 97.5184 237.01 96.6173 237.01 95.6753C237.01 94.7332 237.05 93.6683 237.05 92.5215V91.989C237.05 90.6784 236.888 89.8592 236.603 89.4906C236.318 89.122 235.789 88.9581 235.057 88.9581C234.203 88.9581 233.593 89.2039 233.267 89.6544C232.901 90.1459 232.738 91.2928 232.738 93.1359V95.3886C232.738 96.4535 232.779 97.1907 232.86 97.5594C232.942 97.969 233.064 98.2147 233.227 98.3376H230.542V98.3785Z" fill="#19191A"/>
<path d="M249.091 96.0849V96.1259C249.091 96.9041 248.766 97.5185 248.155 98.01C247.545 98.4605 246.691 98.7063 245.674 98.7063C244.291 98.7063 243.152 98.2148 242.216 97.2318C241.322 96.2488 240.833 94.9791 240.833 93.4226C240.833 91.7434 241.362 90.3508 242.379 89.2858C243.437 88.2209 244.738 87.6885 246.406 87.6885C246.854 87.6885 247.26 87.7294 247.627 87.7704C247.993 87.8114 248.359 87.8933 248.684 87.9752L248.603 90.4327C248.399 89.7773 248.115 89.3268 247.708 88.9991C247.301 88.6715 246.854 88.5076 246.284 88.5076C245.227 88.5076 244.372 88.9582 243.721 89.8183C243.071 90.6784 242.745 91.8253 242.745 93.2588C242.745 94.4876 243.071 95.4706 243.721 96.2488C244.372 97.027 245.186 97.3956 246.203 97.3956C246.772 97.3956 247.342 97.2727 247.83 97.0679C248.318 96.8631 248.766 96.4945 249.091 96.0849Z" fill="#19191A"/>
<path d="M252.468 98.6652L251.166 97.1087L253.078 95.9619L254.257 97.4774L252.468 98.6652Z" fill="#19191A"/>
<path d="M16.2547 82.4428C16.0735 77.2102 16.0735 72.0385 16.3152 66.9885C17.1007 64.859 18.0071 62.7904 18.9739 60.7825C17.7654 67.2319 16.9194 74.0464 16.6173 80.8C16.4964 81.3476 16.3756 81.8952 16.2547 82.4428ZM41.8152 49.9524V52.3861C46.3472 49.5873 51.6647 48.1271 57.8282 48.4313C51.6647 47.1536 46.3472 47.8229 41.8152 49.9524ZM16.6173 61.0259C17.5841 59.1398 18.6114 57.3753 19.7595 55.7325C21.6327 39.9132 24.5936 23.4247 30.6967 11.5602H25.8626C21.5119 25.1892 17.8863 42.2861 16.6173 61.0259ZM22.5995 97.3494C22.5995 97.6536 22.5995 97.7753 22.5995 98.262H29.0047C32.1469 95.8283 31.7844 93.0295 25.5604 90.2915C32.3282 90.4741 37.7062 91.3867 41.7547 92.5428V52.3861C28.8839 60.4175 22.5995 79.0964 22.5995 97.3494ZM32.0261 11.5602C26.6481 22.0253 24.231 33.1596 22.9621 44.4157C27.1315 30.6651 32.6303 20.0783 37.1019 16.7928C31.8448 22.512 26.1043 36.6885 22.5391 52.0819C25.1374 49.0398 28.0379 46.7277 31.2405 45.3891C27.6754 48.1271 24.5936 51.5343 22.0557 55.4891C21.814 59.7482 21.6327 63.9464 21.4514 68.0837C21.391 69.2398 21.3306 70.4566 21.2701 71.6126C25.1374 58.1054 31.7844 47.2753 40.1232 34.1331C33.2346 48.0663 28.2796 58.1663 25.0166 69.6048C28.7026 61.0867 34.141 53.5422 41.7547 50.0132V11.5602H32.0261ZM0 90.9608V98.3229H6.8282C7.31161 89.5006 9.42654 78.7922 13.0521 69.1789C14.2607 49.0398 18.7322 26.7102 25.8626 11.5602H0V68.6922C1.75237 63.2771 4.04858 58.1054 6.94905 53.6638C4.10901 59.3831 1.57109 66.5626 0 74.5331V81.5301C2.17536 74.8373 5.61967 68.9964 10.4538 66.5626C3.98815 72.2819 1.02725 80.8 0 90.9608ZM30.6967 11.5602H32.0261C34.0201 7.60542 36.4372 3.77229 39.3377 0C35.8934 2.92048 33.0533 6.8753 30.6967 11.5602ZM12.6896 79.8265C11.5415 85.7283 10.8768 91.8126 10.7559 97.7144C10.7559 97.897 10.7559 98.0187 10.7559 98.262H13.173C13.1126 97.6536 13.0521 97.2885 12.9917 96.4367C12.6291 91.4476 12.9917 84.9373 12.6896 79.8265Z" fill="url(#paint0_linear_1116_2495)"/>
<defs>
<linearGradient id="paint0_linear_1116_2495" x1="28.8964" y1="0" x2="28.8964" y2="98.2925" gradientUnits="userSpaceOnUse">
<stop stop-color="#F1B931"/>
<stop offset="1" stop-color="#44355E"/>
</linearGradient>
</defs>
</svg>
